<svg xmlns="http://www.w3.org/2000/svg" xmlns:xlink="http://www.w3.org/1999/xlink" width="500" zoomAndPan="magnify" viewBox="0 0 375 374.999991" height="500" preserveAspectRatio="xMidYMid meet" version="1.0"><defs><clipPath id="90a30daad6"><path d="M 35.660156 296.570312 L 339.339844 296.570312 L 339.339844 310.921875 L 35.660156 310.921875 Z M 35.660156 296.570312 " clip-rule="nonzero"/></clipPath><clipPath id="961bd36d43"><path d="M 0.660156 0.570312 L 304.339844 0.570312 L 304.339844 14.921875 L 0.660156 14.921875 Z M 0.660156 0.570312 " clip-rule="nonzero"/></clipPath><clipPath id="89ad53889a"><rect x="0" width="305" y="0" height="15"/></clipPath><clipPath id="4e408ac835"><path d="M 0 249.898438 L 375 249.898438 L 375 280.070312 L 0 280.070312 Z M 0 249.898438 " clip-rule="nonzero"/></clipPath><clipPath id="cb245102d1"><path d="M 0 0.898438 L 375 0.898438 L 375 31.070312 L 0 31.070312 Z M 0 0.898438 " clip-rule="nonzero"/></clipPath><clipPath id="e0ed0225e4"><rect x="0" width="375" y="0" height="32"/></clipPath><clipPath id="aa48430703"><path d="M 0 213.769531 L 375 213.769531 L 375 250.019531 L 0 250.019531 Z M 0 213.769531 " clip-rule="nonzero"/></clipPath><clipPath id="c076fdf7c2"><path d="M 41.46875 213.769531 L 336.929688 213.769531 L 406.167969 250.019531 L -27.773438 250.019531 Z M 41.46875 213.769531 " clip-rule="nonzero"/></clipPath><clipPath id="2fd8109c07"><path d="M 0 0.769531 L 375 0.769531 L 375 37.019531 L 0 37.019531 Z M 0 0.769531 " clip-rule="nonzero"/></clipPath><clipPath id="94e535f568"><path d="M 41.46875 0.769531 L 336.929688 0.769531 L 406.167969 37.019531 L -27.773438 37.019531 Z M 41.46875 0.769531 " clip-rule="nonzero"/></clipPath><clipPath id="dc2f56ad15"><rect x="0" width="375" y="0" height="38"/></clipPath><clipPath id="f465044d2b"><path d="M 62.015625 257.390625 L 92.402344 257.390625 L 92.402344 272.582031 L 62.015625 272.582031 Z M 62.015625 257.390625 " clip-rule="nonzero"/></clipPath><clipPath id="4a57b8d1e3"><path d="M 84.804688 257.390625 C 89 257.390625 92.402344 260.789062 92.402344 264.984375 C 92.402344 269.179688 89 272.582031 84.804688 272.582031 L 69.613281 272.582031 C 65.417969 272.582031 62.015625 269.179688 62.015625 264.984375 C 62.015625 260.789062 65.417969 257.390625 69.613281 257.390625 Z M 84.804688 257.390625 " clip-rule="nonzero"/></clipPath><clipPath id="20388ed383"><path d="M 0.015625 0.390625 L 30.402344 0.390625 L 30.402344 15.582031 L 0.015625 15.582031 Z M 0.015625 0.390625 " clip-rule="nonzero"/></clipPath><clipPath id="7a637324a6"><path d="M 22.804688 0.390625 C 27 0.390625 30.402344 3.789062 30.402344 7.984375 C 30.402344 12.179688 27 15.582031 22.804688 15.582031 L 7.613281 15.582031 C 3.417969 15.582031 0.015625 12.179688 0.015625 7.984375 C 0.015625 3.789062 3.417969 0.390625 7.613281 0.390625 Z M 22.804688 0.390625 " clip-rule="nonzero"/></clipPath><clipPath id="1028956e3b"><rect x="0" width="31" y="0" height="16"/></clipPath><clipPath id="3dc5a887c0"><path d="M 61.164062 213.269531 L 77.542969 213.269531 L 77.542969 237.328125 L 61.164062 237.328125 Z M 61.164062 213.269531 " clip-rule="nonzero"/></clipPath><clipPath id="605b5011a6"><path d="M 66.625 236.84375 C 67.464844 237.128906 68.421875 237.316406 69.359375 237.316406 C 70.296875 237.316406 71.195312 237.15625 72.027344 236.867188 C 72.046875 236.859375 72.0625 236.859375 72.082031 236.851562 C 75.203125 235.707031 77.5 232.691406 77.542969 229.082031 L 77.542969 213.269531 L 61.164062 213.269531 L 61.164062 229.070312 C 61.207031 232.710938 63.46875 235.726562 66.625 236.84375 Z M 66.625 236.84375 " clip-rule="nonzero"/></clipPath><clipPath id="4c469cc7a7"><path d="M 0.164062 0.269531 L 16.542969 0.269531 L 16.542969 24.328125 L 0.164062 24.328125 Z M 0.164062 0.269531 " clip-rule="nonzero"/></clipPath><clipPath id="3c3ba4e07c"><path d="M 5.625 23.84375 C 6.464844 24.128906 7.421875 24.316406 8.359375 24.316406 C 9.296875 24.316406 10.195312 24.15625 11.027344 23.867188 C 11.046875 23.859375 11.0625 23.859375 11.082031 23.851562 C 14.203125 22.707031 16.5 19.691406 16.542969 16.082031 L 16.542969 0.269531 L 0.164062 0.269531 L 0.164062 16.070312 C 0.207031 19.710938 2.46875 22.726562 5.625 23.84375 Z M 5.625 23.84375 " clip-rule="nonzero"/></clipPath><clipPath id="c3f85b9f77"><rect x="0" width="17" y="0" height="25"/></clipPath><clipPath id="b4c3f44534"><path d="M 88.488281 213.269531 L 104.871094 213.269531 L 104.871094 237.328125 L 88.488281 237.328125 Z M 88.488281 213.269531 " clip-rule="nonzero"/></clipPath><clipPath id="c03a6fb393"><path d="M 93.953125 236.84375 C 94.792969 237.128906 95.746094 237.316406 96.683594 237.316406 C 97.621094 237.316406 98.523438 237.15625 99.355469 236.867188 C 99.371094 236.859375 99.390625 236.859375 99.40625 236.851562 C 102.527344 235.707031 104.824219 232.691406 104.871094 229.082031 L 104.871094 213.269531 L 88.488281 213.269531 L 88.488281 229.070312 C 88.535156 232.710938 90.796875 235.726562 93.953125 236.84375 Z M 93.953125 236.84375 " clip-rule="nonzero"/></clipPath><clipPath id="5be581cd81"><path d="M 0.488281 0.269531 L 16.871094 0.269531 L 16.871094 24.328125 L 0.488281 24.328125 Z M 0.488281 0.269531 " clip-rule="nonzero"/></clipPath><clipPath id="3a02a9fb97"><path d="M 5.953125 23.84375 C 6.792969 24.128906 7.746094 24.316406 8.683594 24.316406 C 9.621094 24.316406 10.523438 24.15625 11.355469 23.867188 C 11.371094 23.859375 11.390625 23.859375 11.40625 23.851562 C 14.527344 22.707031 16.824219 19.691406 16.871094 16.082031 L 16.871094 0.269531 L 0.488281 0.269531 L 0.488281 16.070312 C 0.535156 19.710938 2.796875 22.726562 5.953125 23.84375 Z M 5.953125 23.84375 " clip-rule="nonzero"/></clipPath><clipPath id="71146a16a4"><rect x="0" width="17" y="0" height="25"/></clipPath><clipPath id="58f63860b3"><path d="M 274.019531 213.269531 L 290.398438 213.269531 L 290.398438 237.328125 L 274.019531 237.328125 Z M 274.019531 213.269531 " clip-rule="nonzero"/></clipPath><clipPath id="d79f6dfd7b"><path d="M 279.484375 236.84375 C 280.324219 237.128906 281.277344 237.316406 282.214844 237.316406 C 283.152344 237.316406 284.054688 237.15625 284.882812 236.867188 C 284.902344 236.859375 284.917969 236.859375 284.9375 236.851562 C 288.058594 235.707031 290.355469 232.691406 290.398438 229.082031 L 290.398438 213.269531 L 274.019531 213.269531 L 274.019531 229.070312 C 274.0625 232.710938 276.328125 235.726562 279.484375 236.84375 Z M 279.484375 236.84375 " clip-rule="nonzero"/></clipPath><clipPath id="36d9113e32"><path d="M 0.0195312 0.269531 L 16.398438 0.269531 L 16.398438 24.328125 L 0.0195312 24.328125 Z M 0.0195312 0.269531 " clip-rule="nonzero"/></clipPath><clipPath id="0e71cd4a02"><path d="M 5.484375 23.84375 C 6.324219 24.128906 7.277344 24.316406 8.214844 24.316406 C 9.152344 24.316406 10.054688 24.15625 10.882812 23.867188 C 10.902344 23.859375 10.917969 23.859375 10.9375 23.851562 C 14.058594 22.707031 16.355469 19.691406 16.398438 16.082031 L 16.398438 0.269531 L 0.0195312 0.269531 L 0.0195312 16.070312 C 0.0625 19.710938 2.328125 22.726562 5.484375 23.84375 Z M 5.484375 23.84375 " clip-rule="nonzero"/></clipPath><clipPath id="d2468237eb"><rect x="0" width="17" y="0" height="25"/></clipPath><clipPath id="e14d3b2381"><path d="M 301.839844 213.269531 L 318.21875 213.269531 L 318.21875 237.328125 L 301.839844 237.328125 Z M 301.839844 213.269531 " clip-rule="nonzero"/></clipPath><clipPath id="afd992f817"><path d="M 307.300781 236.84375 C 308.140625 237.128906 309.097656 237.316406 310.035156 237.316406 C 310.972656 237.316406 311.871094 237.15625 312.703125 236.867188 C 312.722656 236.859375 312.738281 236.859375 312.757812 236.851562 C 315.878906 235.707031 318.175781 232.691406 318.21875 229.082031 L 318.21875 213.269531 L 301.839844 213.269531 L 301.839844 229.070312 C 301.882812 232.710938 304.148438 235.726562 307.300781 236.84375 Z M 307.300781 236.84375 " clip-rule="nonzero"/></clipPath><clipPath id="fbbac6c39d"><path d="M 0.839844 0.269531 L 17.21875 0.269531 L 17.21875 24.328125 L 0.839844 24.328125 Z M 0.839844 0.269531 " clip-rule="nonzero"/></clipPath><clipPath id="55bdf6dd12"><path d="M 6.300781 23.84375 C 7.140625 24.128906 8.097656 24.316406 9.035156 24.316406 C 9.972656 24.316406 10.871094 24.15625 11.703125 23.867188 C 11.722656 23.859375 11.738281 23.859375 11.757812 23.851562 C 14.878906 22.707031 17.175781 19.691406 17.21875 16.082031 L 17.21875 0.269531 L 0.839844 0.269531 L 0.839844 16.070312 C 0.882812 19.710938 3.148438 22.726562 6.300781 23.84375 Z M 6.300781 23.84375 " clip-rule="nonzero"/></clipPath><clipPath id="9222df3c94"><rect x="0" width="18" y="0" height="25"/></clipPath><clipPath id="0f17b21b08"><path d="M 285.992188 257.390625 L 316.378906 257.390625 L 316.378906 272.582031 L 285.992188 272.582031 Z M 285.992188 257.390625 " clip-rule="nonzero"/></clipPath><clipPath id="2860c47e67"><path d="M 308.78125 257.390625 C 312.976562 257.390625 316.378906 260.789062 316.378906 264.984375 C 316.378906 269.179688 312.976562 272.582031 308.78125 272.582031 L 293.589844 272.582031 C 289.394531 272.582031 285.992188 269.179688 285.992188 264.984375 C 285.992188 260.789062 289.394531 257.390625 293.589844 257.390625 Z M 308.78125 257.390625 " clip-rule="nonzero"/></clipPath><clipPath id="05c74e3ce2"><path d="M 0.992188 0.390625 L 31.378906 0.390625 L 31.378906 15.582031 L 0.992188 15.582031 Z M 0.992188 0.390625 " clip-rule="nonzero"/></clipPath><clipPath id="c535451c8c"><path d="M 23.78125 0.390625 C 27.976562 0.390625 31.378906 3.789062 31.378906 7.984375 C 31.378906 12.179688 27.976562 15.582031 23.78125 15.582031 L 8.589844 15.582031 C 4.394531 15.582031 0.992188 12.179688 0.992188 7.984375 C 0.992188 3.789062 4.394531 0.390625 8.589844 0.390625 Z M 23.78125 0.390625 " clip-rule="nonzero"/></clipPath><clipPath id="5376e8f3f9"><rect x="0" width="32" y="0" height="16"/></clipPath><clipPath id="a7db0c3056"><path d="M 38.996094 46.898438 L 339.746094 46.898438 L 339.746094 196.898438 L 38.996094 196.898438 Z M 38.996094 46.898438 " clip-rule="nonzero"/></clipPath><clipPath id="324bd0f4a1"><path d="M 60.667969 69.066406 L 317.917969 69.066406 L 317.917969 197.316406 L 60.667969 197.316406 Z M 60.667969 69.066406 " clip-rule="nonzero"/></clipPath><clipPath id="89b8292835"><path d="M 161.042969 195.257812 L 224.144531 195.257812 L 224.144531 258.359375 L 161.042969 258.359375 Z M 161.042969 195.257812 " clip-rule="nonzero"/></clipPath><clipPath id="d7b9589915"><path d="M 192.59375 195.257812 C 175.167969 195.257812 161.042969 209.382812 161.042969 226.808594 C 161.042969 244.234375 175.167969 258.359375 192.59375 258.359375 C 210.019531 258.359375 224.144531 244.234375 224.144531 226.808594 C 224.144531 209.382812 210.019531 195.257812 192.59375 195.257812 Z M 192.59375 195.257812 " clip-rule="nonzero"/></clipPath><clipPath id="0cc41c2a5f"><path d="M 0.0429688 0.257812 L 63.144531 0.257812 L 63.144531 63.359375 L 0.0429688 63.359375 Z M 0.0429688 0.257812 " clip-rule="nonzero"/></clipPath><clipPath id="f7c165600b"><path d="M 31.59375 0.257812 C 14.167969 0.257812 0.0429688 14.382812 0.0429688 31.808594 C 0.0429688 49.234375 14.167969 63.359375 31.59375 63.359375 C 49.019531 63.359375 63.144531 49.234375 63.144531 31.808594 C 63.144531 14.382812 49.019531 0.257812 31.59375 0.257812 Z M 31.59375 0.257812 " clip-rule="nonzero"/></clipPath><clipPath id="e16c1c0eb3"><rect x="0" width="64" y="0" height="64"/></clipPath><clipPath id="f2b3d283af"><path d="M 184.753906 218.96875 L 200.429688 218.96875 L 200.429688 234.648438 L 184.753906 234.648438 Z M 184.753906 218.96875 " clip-rule="nonzero"/></clipPath><clipPath id="e9c5c99de9"><path d="M 192.59375 218.96875 C 188.265625 218.96875 184.753906 222.480469 184.753906 226.808594 C 184.753906 231.136719 188.265625 234.648438 192.59375 234.648438 C 196.921875 234.648438 200.429688 231.136719 200.429688 226.808594 C 200.429688 222.480469 196.921875 218.96875 192.59375 218.96875 Z M 192.59375 218.96875 " clip-rule="nonzero"/></clipPath><clipPath id="11c8f853f1"><path d="M 0.753906 0.96875 L 16.429688 0.96875 L 16.429688 16.648438 L 0.753906 16.648438 Z M 0.753906 0.96875 " clip-rule="nonzero"/></clipPath><clipPath id="cefcd414d0"><path d="M 8.59375 0.96875 C 4.265625 0.96875 0.753906 4.480469 0.753906 8.808594 C 0.753906 13.136719 4.265625 16.648438 8.59375 16.648438 C 12.921875 16.648438 16.429688 13.136719 16.429688 8.808594 C 16.429688 4.480469 12.921875 0.96875 8.59375 0.96875 Z M 8.59375 0.96875 " clip-rule="nonzero"/></clipPath><clipPath id="4d04dc876b"><rect x="0" width="17" y="0" height="17"/></clipPath><clipPath id="832bc45dcf"><path d="M 92.402344 100.304688 L 285.902344 100.304688 L 285.902344 197.054688 L 92.402344 197.054688 Z M 92.402344 100.304688 " clip-rule="nonzero"/></clipPath><clipPath id="cd08722bec"><path d="M 115.816406 123.71875 L 262.582031 123.71875 L 262.582031 270.484375 L 115.816406 270.484375 Z M 115.816406 123.71875 " clip-rule="nonzero"/></clipPath><clipPath id="e7192a37da"><path d="M 189.199219 123.71875 C 148.667969 123.71875 115.816406 156.574219 115.816406 197.101562 C 115.816406 237.628906 148.667969 270.484375 189.199219 270.484375 C 229.726562 270.484375 262.582031 237.628906 262.582031 197.101562 C 262.582031 156.574219 229.726562 123.71875 189.199219 123.71875 Z M 189.199219 123.71875 " clip-rule="nonzero"/></clipPath><clipPath id="426e835828"><path d="M 0.816406 0.71875 L 147.582031 0.71875 L 147.582031 147.484375 L 0.816406 147.484375 Z M 0.816406 0.71875 " clip-rule="nonzero"/></clipPath><clipPath id="d4a9414d00"><path d="M 74.199219 0.71875 C 33.667969 0.71875 0.816406 33.574219 0.816406 74.101562 C 0.816406 114.628906 33.667969 147.484375 74.199219 147.484375 C 114.726562 147.484375 147.582031 114.628906 147.582031 74.101562 C 147.582031 33.574219 114.726562 0.71875 74.199219 0.71875 Z M 74.199219 0.71875 " clip-rule="nonzero"/></clipPath><clipPath id="8193a5af36"><rect x="0" width="148" y="0" height="148"/></clipPath><clipPath id="4a81fca005"><path d="M 141.996094 149.902344 L 236.398438 149.902344 L 236.398438 244.300781 L 141.996094 244.300781 Z M 141.996094 149.902344 " clip-rule="nonzero"/></clipPath><clipPath id="9ed59fc077"><path d="M 189.199219 149.902344 C 163.128906 149.902344 141.996094 171.035156 141.996094 197.101562 C 141.996094 223.167969 163.128906 244.300781 189.199219 244.300781 C 215.265625 244.300781 236.398438 223.167969 236.398438 197.101562 C 236.398438 171.035156 215.265625 149.902344 189.199219 149.902344 Z M 189.199219 149.902344 " clip-rule="nonzero"/></clipPath><clipPath id="70f35ac14e"><path d="M 0.996094 0.902344 L 95.398438 0.902344 L 95.398438 95.300781 L 0.996094 95.300781 Z M 0.996094 0.902344 " clip-rule="nonzero"/></clipPath><clipPath id="d43bcd8c6c"><path d="M 48.199219 0.902344 C 22.128906 0.902344 0.996094 22.035156 0.996094 48.101562 C 0.996094 74.167969 22.128906 95.300781 48.199219 95.300781 C 74.265625 95.300781 95.398438 74.167969 95.398438 48.101562 C 95.398438 22.035156 74.265625 0.902344 48.199219 0.902344 Z M 48.199219 0.902344 " clip-rule="nonzero"/></clipPath><clipPath id="c5a839ab69"><rect x="0" width="96" y="0" height="96"/></clipPath><clipPath id="552570cd8b"><path d="M 162.949219 170.855469 L 215.445312 170.855469 L 215.445312 223.347656 L 162.949219 223.347656 Z M 162.949219 170.855469 " clip-rule="nonzero"/></clipPath><clipPath id="593aae49c1"><path d="M 189.199219 170.855469 C 174.703125 170.855469 162.949219 182.605469 162.949219 197.101562 C 162.949219 211.597656 174.703125 223.347656 189.199219 223.347656 C 203.691406 223.347656 215.445312 211.597656 215.445312 197.101562 C 215.445312 182.605469 203.691406 170.855469 189.199219 170.855469 Z M 189.199219 170.855469 " clip-rule="nonzero"/></clipPath><clipPath id="795b9e627d"><path d="M 0.949219 0.855469 L 53.445312 0.855469 L 53.445312 53.347656 L 0.949219 53.347656 Z M 0.949219 0.855469 " clip-rule="nonzero"/></clipPath><clipPath id="a73ecb9313"><path d="M 27.199219 0.855469 C 12.703125 0.855469 0.949219 12.605469 0.949219 27.101562 C 0.949219 41.597656 12.703125 53.347656 27.199219 53.347656 C 41.691406 53.347656 53.445312 41.597656 53.445312 27.101562 C 53.445312 12.605469 41.691406 0.855469 27.199219 0.855469 Z M 27.199219 0.855469 " clip-rule="nonzero"/></clipPath><clipPath id="aa38303f54"><rect x="0" width="54" y="0" height="54"/></clipPath><clipPath id="3a2e4dd8be"><path d="M 181.359375 189.261719 L 197.035156 189.261719 L 197.035156 204.9375 L 181.359375 204.9375 Z M 181.359375 189.261719 " clip-rule="nonzero"/></clipPath><clipPath id="078e652548"><path d="M 189.199219 189.261719 C 184.867188 189.261719 181.359375 192.773438 181.359375 197.101562 C 181.359375 201.429688 184.867188 204.9375 189.199219 204.9375 C 193.527344 204.9375 197.035156 201.429688 197.035156 197.101562 C 197.035156 192.773438 193.527344 189.261719 189.199219 189.261719 Z M 189.199219 189.261719 " clip-rule="nonzero"/></clipPath><clipPath id="46415cec4a"><path d="M 0.359375 0.261719 L 16.035156 0.261719 L 16.035156 15.9375 L 0.359375 15.9375 Z M 0.359375 0.261719 " clip-rule="nonzero"/></clipPath><clipPath id="a321f62581"><path d="M 8.199219 0.261719 C 3.867188 0.261719 0.359375 3.773438 0.359375 8.101562 C 0.359375 12.429688 3.867188 15.9375 8.199219 15.9375 C 12.527344 15.9375 16.035156 12.429688 16.035156 8.101562 C 16.035156 3.773438 12.527344 0.261719 8.199219 0.261719 Z M 8.199219 0.261719 " clip-rule="nonzero"/></clipPath><clipPath id="823db841ed"><rect x="0" width="17" y="0" height="16"/></clipPath><clipPath id="13cc675a62"><path d="M 0 134.816406 L 21.277344 134.816406 L 21.277344 311.878906 L 0 311.878906 Z M 0 134.816406 " clip-rule="nonzero"/></clipPath><clipPath id="3f726bf437"><path d="M 0 0.816406 L 21.277344 0.816406 L 21.277344 177.878906 L 0 177.878906 Z M 0 0.816406 " clip-rule="nonzero"/></clipPath><clipPath id="a21b12a2a4"><rect x="0" width="22" y="0" height="178"/></clipPath><clipPath id="0a21fcb3b7"><path d="M 357.121094 111.40625 L 375 111.40625 L 375 311.878906 L 357.121094 311.878906 Z M 357.121094 111.40625 " clip-rule="nonzero"/></clipPath><clipPath id="eb92929f4a"><path d="M 0.121094 0.40625 L 18 0.40625 L 18 200.878906 L 0.121094 200.878906 Z M 0.121094 0.40625 " clip-rule="nonzero"/></clipPath><clipPath id="aaea1744e4"><rect x="0" width="18" y="0" height="201"/></clipPath></defs><rect x="-37.5" width="450" fill="#ffffff" y="-37.499999" height="449.999989" fill-opacity="1"/><rect x="-37.5" width="450" fill="#005ad1" y="-37.499999" height="449.999989" fill-opacity="1"/><g clip-path="url(#90a30daad6)"><g transform="matrix(1, 0, 0, 1, 35, 296)"><g clip-path="url(#89ad53889a)"><g clip-path="url(#961bd36d43)"><path fill="#ffffff" d="M 0.660156 0.570312 L 304.355469 0.570312 L 304.355469 14.921875 L 0.660156 14.921875 Z M 0.660156 0.570312 " fill-opacity="1" fill-rule="nonzero"/></g></g></g></g><g clip-path="url(#4e408ac835)"><g transform="matrix(1, 0, 0, 1, 0, 249)"><g clip-path="url(#e0ed0225e4)"><g clip-path="url(#cb245102d1)"><path fill="#d9d9d9" d="M -27.773438 0.898438 L 406.175781 0.898438 L 406.175781 31.070312 L -27.773438 31.070312 Z M -27.773438 0.898438 " fill-opacity="1" fill-rule="nonzero"/></g></g></g></g><g clip-path="url(#aa48430703)"><g clip-path="url(#c076fdf7c2)"><g transform="matrix(1, 0, 0, 1, 0, 213)"><g clip-path="url(#dc2f56ad15)"><g clip-path="url(#2fd8109c07)"><g clip-path="url(#94e535f568)"><path fill="#ffffff" d="M -27.773438 0.769531 L 406.21875 0.769531 L 406.21875 37.019531 L -27.773438 37.019531 Z M -27.773438 0.769531 " fill-opacity="1" fill-rule="nonzero"/></g></g></g></g></g></g><g clip-path="url(#f465044d2b)"><g clip-path="url(#4a57b8d1e3)"><g transform="matrix(1, 0, 0, 1, 62, 257)"><g clip-path="url(#1028956e3b)"><g clip-path="url(#20388ed383)"><g clip-path="url(#7a637324a6)"><path fill="#005ad1" d="M 0.015625 0.390625 L 30.402344 0.390625 L 30.402344 15.582031 L 0.015625 15.582031 Z M 0.015625 0.390625 " fill-opacity="1" fill-rule="nonzero"/></g></g></g></g></g></g><g clip-path="url(#3dc5a887c0)"><g clip-path="url(#605b5011a6)"><g transform="matrix(1, 0, 0, 1, 61, 213)"><g clip-path="url(#c3f85b9f77)"><g clip-path="url(#4c469cc7a7)"><g clip-path="url(#3c3ba4e07c)"><path fill="#005ad1" d="M 0.164062 0.269531 L 16.542969 0.269531 L 16.542969 24.328125 L 0.164062 24.328125 Z M 0.164062 0.269531 " fill-opacity="1" fill-rule="nonzero"/></g></g></g></g></g></g><g clip-path="url(#b4c3f44534)"><g clip-path="url(#c03a6fb393)"><g transform="matrix(1, 0, 0, 1, 88, 213)"><g clip-path="url(#71146a16a4)"><g clip-path="url(#5be581cd81)"><g clip-path="url(#3a02a9fb97)"><path fill="#005ad1" d="M 0.488281 0.269531 L 16.871094 0.269531 L 16.871094 24.328125 L 0.488281 24.328125 Z M 0.488281 0.269531 " fill-opacity="1" fill-rule="nonzero"/></g></g></g></g></g></g><g clip-path="url(#58f63860b3)"><g clip-path="url(#d79f6dfd7b)"><g transform="matrix(1, 0, 0, 1, 274, 213)"><g clip-path="url(#d2468237eb)"><g clip-path="url(#36d9113e32)"><g clip-path="url(#0e71cd4a02)"><path fill="#005ad1" d="M 0.0195312 0.269531 L 16.398438 0.269531 L 16.398438 24.328125 L 0.0195312 24.328125 Z M 0.0195312 0.269531 " fill-opacity="1" fill-rule="nonzero"/></g></g></g></g></g></g><g clip-path="url(#e14d3b2381)"><g clip-path="url(#afd992f817)"><g transform="matrix(1, 0, 0, 1, 301, 213)"><g clip-path="url(#9222df3c94)"><g clip-path="url(#fbbac6c39d)"><g clip-path="url(#55bdf6dd12)"><path fill="#005ad1" d="M 0.839844 0.269531 L 17.21875 0.269531 L 17.21875 24.328125 L 0.839844 24.328125 Z M 0.839844 0.269531 " fill-opacity="1" fill-rule="nonzero"/></g></g></g></g></g></g><g clip-path="url(#0f17b21b08)"><g clip-path="url(#2860c47e67)"><g transform="matrix(1, 0, 0, 1, 285, 257)"><g clip-path="url(#5376e8f3f9)"><g clip-path="url(#05c74e3ce2)"><g clip-path="url(#c535451c8c)"><path fill="#005ad1" d="M 0.992188 0.390625 L 31.378906 0.390625 L 31.378906 15.582031 L 0.992188 15.582031 Z M 0.992188 0.390625 " fill-opacity="1" fill-rule="nonzero"/></g></g></g></g></g></g><g clip-path="url(#a7db0c3056)"><path fill="#ffffff" d="M 38.996094 197.097656 L 339.394531 197.097656 C 339.394531 114.144531 272.148438 46.898438 189.195312 46.898438 C 106.242188 46.898438 38.996094 114.144531 38.996094 197.097656 Z M 38.996094 197.097656 " fill-opacity="1" fill-rule="nonzero"/></g><g clip-path="url(#324bd0f4a1)"><path fill="#005ad1" d="M 60.675781 197.585938 L 317.714844 197.585938 C 317.714844 126.605469 260.175781 69.066406 189.195312 69.066406 C 118.214844 69.066406 60.675781 126.605469 60.675781 197.585938 Z M 60.675781 197.585938 " fill-opacity="1" fill-rule="nonzero"/></g><g clip-path="url(#89b8292835)"><g clip-path="url(#d7b9589915)"><g transform="matrix(1, 0, 0, 1, 161, 195)"><g clip-path="url(#e16c1c0eb3)"><g clip-path="url(#0cc41c2a5f)"><g clip-path="url(#f7c165600b)"><path fill="#00243d" d="M 0.0429688 0.257812 L 63.144531 0.257812 L 63.144531 63.359375 L 0.0429688 63.359375 Z M 0.0429688 0.257812 " fill-opacity="1" fill-rule="nonzero"/></g></g></g></g></g></g><g clip-path="url(#f2b3d283af)"><g clip-path="url(#e9c5c99de9)"><g transform="matrix(1, 0, 0, 1, 184, 218)"><g clip-path="url(#4d04dc876b)"><g clip-path="url(#11c8f853f1)"><g clip-path="url(#cefcd414d0)"><path fill="#ffffff" d="M 0.753906 0.96875 L 16.429688 0.96875 L 16.429688 16.648438 L 0.753906 16.648438 Z M 0.753906 0.96875 " fill-opacity="1" fill-rule="nonzero"/></g></g></g></g></g></g><g clip-path="url(#832bc45dcf)"><path fill="#ffffff" d="M 92.40625 197.089844 L 285.976562 197.089844 C 285.976562 143.636719 242.644531 100.304688 189.191406 100.304688 C 135.738281 100.304688 92.40625 143.636719 92.40625 197.089844 Z M 92.40625 197.089844 " fill-opacity="1" fill-rule="nonzero"/></g><g clip-path="url(#cd08722bec)"><g clip-path="url(#e7192a37da)"><g transform="matrix(1, 0, 0, 1, 115, 123)"><g clip-path="url(#8193a5af36)"><g clip-path="url(#426e835828)"><g clip-path="url(#d4a9414d00)"><path fill="#005ad1" d="M 0.816406 0.71875 L 147.582031 0.71875 L 147.582031 147.484375 L 0.816406 147.484375 Z M 0.816406 0.71875 " fill-opacity="1" fill-rule="nonzero"/></g></g></g></g></g></g><g clip-path="url(#4a81fca005)"><g clip-path="url(#9ed59fc077)"><g transform="matrix(1, 0, 0, 1, 141, 149)"><g clip-path="url(#c5a839ab69)"><g clip-path="url(#70f35ac14e)"><g clip-path="url(#d43bcd8c6c)"><path fill="#ffffff" d="M 0.996094 0.902344 L 95.398438 0.902344 L 95.398438 95.300781 L 0.996094 95.300781 Z M 0.996094 0.902344 " fill-opacity="1" fill-rule="nonzero"/></g></g></g></g></g></g><g clip-path="url(#552570cd8b)"><g clip-path="url(#593aae49c1)"><g transform="matrix(1, 0, 0, 1, 162, 170)"><g clip-path="url(#aa38303f54)"><g clip-path="url(#795b9e627d)"><g clip-path="url(#a73ecb9313)"><path fill="#005ad1" d="M 0.949219 0.855469 L 53.445312 0.855469 L 53.445312 53.347656 L 0.949219 53.347656 Z M 0.949219 0.855469 " fill-opacity="1" fill-rule="nonzero"/></g></g></g></g></g></g><g clip-path="url(#3a2e4dd8be)"><g clip-path="url(#078e652548)"><g transform="matrix(1, 0, 0, 1, 181, 189)"><g clip-path="url(#823db841ed)"><g clip-path="url(#46415cec4a)"><g clip-path="url(#a321f62581)"><path fill="#ffffff" d="M 0.359375 0.261719 L 16.035156 0.261719 L 16.035156 15.9375 L 0.359375 15.9375 Z M 0.359375 0.261719 " fill-opacity="1" fill-rule="nonzero"/></g></g></g></g></g></g><g clip-path="url(#13cc675a62)"><g transform="matrix(1, 0, 0, 1, 0, 134)"><g clip-path="url(#a21b12a2a4)"><g clip-path="url(#3f726bf437)"><path fill="#005ad1" d="M -142.949219 0.816406 L 21.277344 0.816406 L 21.277344 177.871094 L -142.949219 177.871094 Z M -142.949219 0.816406 " fill-opacity="1" fill-rule="nonzero"/></g></g></g></g><g clip-path="url(#0a21fcb3b7)"><g transform="matrix(1, 0, 0, 1, 357, 111)"><g clip-path="url(#aaea1744e4)"><g clip-path="url(#eb92929f4a)"><path fill="#005ad1" d="M 0.121094 0.40625 L 160.949219 0.40625 L 160.949219 200.816406 L 0.121094 200.816406 Z M 0.121094 0.40625 " fill-opacity="1" fill-rule="nonzero"/></g></g></g></g></svg>