<svg xmlns="http://www.w3.org/2000/svg" xmlns:xlink="http://www.w3.org/1999/xlink" width="500" zoomAndPan="magnify" viewBox="0 0 375 374.999991" height="500" preserveAspectRatio="xMidYMid meet" version="1.0"><defs><clipPath id="98ab69de87"><path d="M 35.660156 296.570312 L 339.339844 296.570312 L 339.339844 310.921875 L 35.660156 310.921875 Z M 35.660156 296.570312 " clip-rule="nonzero"/></clipPath><clipPath id="72e82a47f7"><path d="M 0 249.898438 L 375 249.898438 L 375 280.070312 L 0 280.070312 Z M 0 249.898438 " clip-rule="nonzero"/></clipPath><clipPath id="e1bb6d7e8a"><path d="M 0 213.769531 L 375 213.769531 L 375 250.019531 L 0 250.019531 Z M 0 213.769531 " clip-rule="nonzero"/></clipPath><clipPath id="0d54d82e94"><path d="M 41.46875 213.769531 L 336.929688 213.769531 L 406.167969 250.019531 L -27.773438 250.019531 Z M 41.46875 213.769531 " clip-rule="nonzero"/></clipPath><clipPath id="c597d5c4dc"><path d="M 62.015625 257.390625 L 92.402344 257.390625 L 92.402344 272.582031 L 62.015625 272.582031 Z M 62.015625 257.390625 " clip-rule="nonzero"/></clipPath><clipPath id="ac055dfa49"><path d="M 84.804688 257.390625 C 89 257.390625 92.402344 260.789062 92.402344 264.984375 C 92.402344 269.179688 89 272.582031 84.804688 272.582031 L 69.613281 272.582031 C 65.417969 272.582031 62.015625 269.179688 62.015625 264.984375 C 62.015625 260.789062 65.417969 257.390625 69.613281 257.390625 Z M 84.804688 257.390625 " clip-rule="nonzero"/></clipPath><clipPath id="ac83138fd3"><path d="M 61.164062 213.269531 L 77.542969 213.269531 L 77.542969 237.328125 L 61.164062 237.328125 Z M 61.164062 213.269531 " clip-rule="nonzero"/></clipPath><clipPath id="609f9556db"><path d="M 66.625 236.84375 C 67.464844 237.128906 68.421875 237.316406 69.359375 237.316406 C 70.296875 237.316406 71.195312 237.15625 72.027344 236.867188 C 72.046875 236.859375 72.0625 236.859375 72.082031 236.851562 C 75.203125 235.707031 77.5 232.691406 77.542969 229.082031 L 77.542969 213.269531 L 61.164062 213.269531 L 61.164062 229.070312 C 61.207031 232.710938 63.46875 235.726562 66.625 236.84375 Z M 66.625 236.84375 " clip-rule="nonzero"/></clipPath><clipPath id="c60c8d610e"><path d="M 88.488281 213.269531 L 104.871094 213.269531 L 104.871094 237.328125 L 88.488281 237.328125 Z M 88.488281 213.269531 " clip-rule="nonzero"/></clipPath><clipPath id="7804d57ecf"><path d="M 93.953125 236.84375 C 94.792969 237.128906 95.746094 237.316406 96.683594 237.316406 C 97.621094 237.316406 98.523438 237.15625 99.355469 236.867188 C 99.371094 236.859375 99.390625 236.859375 99.40625 236.851562 C 102.527344 235.707031 104.824219 232.691406 104.871094 229.082031 L 104.871094 213.269531 L 88.488281 213.269531 L 88.488281 229.070312 C 88.535156 232.710938 90.796875 235.726562 93.953125 236.84375 Z M 93.953125 236.84375 " clip-rule="nonzero"/></clipPath><clipPath id="3a73a5a18d"><path d="M 274.019531 213.269531 L 290.398438 213.269531 L 290.398438 237.328125 L 274.019531 237.328125 Z M 274.019531 213.269531 " clip-rule="nonzero"/></clipPath><clipPath id="6dfdf91f6a"><path d="M 279.484375 236.84375 C 280.324219 237.128906 281.277344 237.316406 282.214844 237.316406 C 283.152344 237.316406 284.054688 237.15625 284.882812 236.867188 C 284.902344 236.859375 284.917969 236.859375 284.9375 236.851562 C 288.058594 235.707031 290.355469 232.691406 290.398438 229.082031 L 290.398438 213.269531 L 274.019531 213.269531 L 274.019531 229.070312 C 274.0625 232.710938 276.328125 235.726562 279.484375 236.84375 Z M 279.484375 236.84375 " clip-rule="nonzero"/></clipPath><clipPath id="5b618b3aa4"><path d="M 301.839844 213.269531 L 318.21875 213.269531 L 318.21875 237.328125 L 301.839844 237.328125 Z M 301.839844 213.269531 " clip-rule="nonzero"/></clipPath><clipPath id="d0bdb8b874"><path d="M 307.300781 236.84375 C 308.140625 237.128906 309.097656 237.316406 310.035156 237.316406 C 310.972656 237.316406 311.871094 237.15625 312.703125 236.867188 C 312.722656 236.859375 312.738281 236.859375 312.757812 236.851562 C 315.878906 235.707031 318.175781 232.691406 318.21875 229.082031 L 318.21875 213.269531 L 301.839844 213.269531 L 301.839844 229.070312 C 301.882812 232.710938 304.148438 235.726562 307.300781 236.84375 Z M 307.300781 236.84375 " clip-rule="nonzero"/></clipPath><clipPath id="f6f0b27b0a"><path d="M 285.992188 257.390625 L 316.378906 257.390625 L 316.378906 272.582031 L 285.992188 272.582031 Z M 285.992188 257.390625 " clip-rule="nonzero"/></clipPath><clipPath id="2eb376dbdb"><path d="M 308.78125 257.390625 C 312.976562 257.390625 316.378906 260.789062 316.378906 264.984375 C 316.378906 269.179688 312.976562 272.582031 308.78125 272.582031 L 293.589844 272.582031 C 289.394531 272.582031 285.992188 269.179688 285.992188 264.984375 C 285.992188 260.789062 289.394531 257.390625 293.589844 257.390625 Z M 308.78125 257.390625 " clip-rule="nonzero"/></clipPath><clipPath id="f36b374dd1"><path d="M 38.996094 46.898438 L 339.746094 46.898438 L 339.746094 196.898438 L 38.996094 196.898438 Z M 38.996094 46.898438 " clip-rule="nonzero"/></clipPath><clipPath id="d6a3bcb4fe"><path d="M 60.667969 69.066406 L 317.917969 69.066406 L 317.917969 197.316406 L 60.667969 197.316406 Z M 60.667969 69.066406 " clip-rule="nonzero"/></clipPath><clipPath id="66fe119358"><path d="M 161.042969 195.257812 L 224.144531 195.257812 L 224.144531 258.359375 L 161.042969 258.359375 Z M 161.042969 195.257812 " clip-rule="nonzero"/></clipPath><clipPath id="c580fac11c"><path d="M 192.59375 195.257812 C 175.167969 195.257812 161.042969 209.382812 161.042969 226.808594 C 161.042969 244.234375 175.167969 258.359375 192.59375 258.359375 C 210.019531 258.359375 224.144531 244.234375 224.144531 226.808594 C 224.144531 209.382812 210.019531 195.257812 192.59375 195.257812 Z M 192.59375 195.257812 " clip-rule="nonzero"/></clipPath><clipPath id="6fdba5eb0d"><path d="M 184.753906 218.96875 L 200.429688 218.96875 L 200.429688 234.648438 L 184.753906 234.648438 Z M 184.753906 218.96875 " clip-rule="nonzero"/></clipPath><clipPath id="d8101a7b61"><path d="M 192.59375 218.96875 C 188.265625 218.96875 184.753906 222.480469 184.753906 226.808594 C 184.753906 231.136719 188.265625 234.648438 192.59375 234.648438 C 196.921875 234.648438 200.429688 231.136719 200.429688 226.808594 C 200.429688 222.480469 196.921875 218.96875 192.59375 218.96875 Z M 192.59375 218.96875 " clip-rule="nonzero"/></clipPath><clipPath id="42ac9fc5a9"><path d="M 92.402344 100.304688 L 285.902344 100.304688 L 285.902344 197.054688 L 92.402344 197.054688 Z M 92.402344 100.304688 " clip-rule="nonzero"/></clipPath><clipPath id="400e83ee8a"><path d="M 115.816406 123.71875 L 262.582031 123.71875 L 262.582031 270.484375 L 115.816406 270.484375 Z M 115.816406 123.71875 " clip-rule="nonzero"/></clipPath><clipPath id="2bc9ccfb74"><path d="M 189.199219 123.71875 C 148.667969 123.71875 115.816406 156.574219 115.816406 197.101562 C 115.816406 237.628906 148.667969 270.484375 189.199219 270.484375 C 229.726562 270.484375 262.582031 237.628906 262.582031 197.101562 C 262.582031 156.574219 229.726562 123.71875 189.199219 123.71875 Z M 189.199219 123.71875 " clip-rule="nonzero"/></clipPath><clipPath id="301473d69e"><path d="M 141.996094 149.902344 L 236.398438 149.902344 L 236.398438 244.300781 L 141.996094 244.300781 Z M 141.996094 149.902344 " clip-rule="nonzero"/></clipPath><clipPath id="d33a5e68f2"><path d="M 189.199219 149.902344 C 163.128906 149.902344 141.996094 171.035156 141.996094 197.101562 C 141.996094 223.167969 163.128906 244.300781 189.199219 244.300781 C 215.265625 244.300781 236.398438 223.167969 236.398438 197.101562 C 236.398438 171.035156 215.265625 149.902344 189.199219 149.902344 Z M 189.199219 149.902344 " clip-rule="nonzero"/></clipPath><clipPath id="291fdcd42a"><path d="M 162.949219 170.855469 L 215.445312 170.855469 L 215.445312 223.347656 L 162.949219 223.347656 Z M 162.949219 170.855469 " clip-rule="nonzero"/></clipPath><clipPath id="1cacfedb06"><path d="M 189.199219 170.855469 C 174.703125 170.855469 162.949219 182.605469 162.949219 197.101562 C 162.949219 211.597656 174.703125 223.347656 189.199219 223.347656 C 203.691406 223.347656 215.445312 211.597656 215.445312 197.101562 C 215.445312 182.605469 203.691406 170.855469 189.199219 170.855469 Z M 189.199219 170.855469 " clip-rule="nonzero"/></clipPath><clipPath id="5e72852edb"><path d="M 181.359375 189.261719 L 197.035156 189.261719 L 197.035156 204.9375 L 181.359375 204.9375 Z M 181.359375 189.261719 " clip-rule="nonzero"/></clipPath><clipPath id="f67407c2b5"><path d="M 189.199219 189.261719 C 184.867188 189.261719 181.359375 192.773438 181.359375 197.101562 C 181.359375 201.429688 184.867188 204.9375 189.199219 204.9375 C 193.527344 204.9375 197.035156 201.429688 197.035156 197.101562 C 197.035156 192.773438 193.527344 189.261719 189.199219 189.261719 Z M 189.199219 189.261719 " clip-rule="nonzero"/></clipPath><clipPath id="d65d74ea4a"><path d="M 0 134.816406 L 21.277344 134.816406 L 21.277344 311.878906 L 0 311.878906 Z M 0 134.816406 " clip-rule="nonzero"/></clipPath><clipPath id="5d709d5bd0"><path d="M 357.121094 111.40625 L 375 111.40625 L 375 311.878906 L 357.121094 311.878906 Z M 357.121094 111.40625 " clip-rule="nonzero"/></clipPath></defs><rect x="-37.5" width="450" fill="#ffffff" y="-37.499999" height="449.999989" fill-opacity="1"/><rect x="-37.5" width="450" fill="#00243d" y="-37.499999" height="449.999989" fill-opacity="1"/><g clip-path="url(#98ab69de87)"><path fill="#ffffff" d="M 35.660156 296.570312 L 339.355469 296.570312 L 339.355469 310.921875 L 35.660156 310.921875 Z M 35.660156 296.570312 " fill-opacity="1" fill-rule="nonzero"/></g><g clip-path="url(#72e82a47f7)"><path fill="#d9d9d9" d="M -27.773438 249.898438 L 406.175781 249.898438 L 406.175781 280.070312 L -27.773438 280.070312 Z M -27.773438 249.898438 " fill-opacity="1" fill-rule="nonzero"/></g><g clip-path="url(#e1bb6d7e8a)"><g clip-path="url(#0d54d82e94)"><path fill="#ffffff" d="M -27.773438 213.769531 L 406.21875 213.769531 L 406.21875 250.019531 L -27.773438 250.019531 Z M -27.773438 213.769531 " fill-opacity="1" fill-rule="nonzero"/></g></g><g clip-path="url(#c597d5c4dc)"><g clip-path="url(#ac055dfa49)"><path fill="#00243d" d="M 62.015625 257.390625 L 92.402344 257.390625 L 92.402344 272.582031 L 62.015625 272.582031 Z M 62.015625 257.390625 " fill-opacity="1" fill-rule="nonzero"/></g></g><g clip-path="url(#ac83138fd3)"><g clip-path="url(#609f9556db)"><path fill="#00243d" d="M 61.164062 213.269531 L 77.542969 213.269531 L 77.542969 237.328125 L 61.164062 237.328125 Z M 61.164062 213.269531 " fill-opacity="1" fill-rule="nonzero"/></g></g><g clip-path="url(#c60c8d610e)"><g clip-path="url(#7804d57ecf)"><path fill="#00243d" d="M 88.488281 213.269531 L 104.871094 213.269531 L 104.871094 237.328125 L 88.488281 237.328125 Z M 88.488281 213.269531 " fill-opacity="1" fill-rule="nonzero"/></g></g><g clip-path="url(#3a73a5a18d)"><g clip-path="url(#6dfdf91f6a)"><path fill="#00243d" d="M 274.019531 213.269531 L 290.398438 213.269531 L 290.398438 237.328125 L 274.019531 237.328125 Z M 274.019531 213.269531 " fill-opacity="1" fill-rule="nonzero"/></g></g><g clip-path="url(#5b618b3aa4)"><g clip-path="url(#d0bdb8b874)"><path fill="#00243d" d="M 301.839844 213.269531 L 318.21875 213.269531 L 318.21875 237.328125 L 301.839844 237.328125 Z M 301.839844 213.269531 " fill-opacity="1" fill-rule="nonzero"/></g></g><g clip-path="url(#f6f0b27b0a)"><g clip-path="url(#2eb376dbdb)"><path fill="#00243d" d="M 285.992188 257.390625 L 316.378906 257.390625 L 316.378906 272.582031 L 285.992188 272.582031 Z M 285.992188 257.390625 " fill-opacity="1" fill-rule="nonzero"/></g></g><g clip-path="url(#f36b374dd1)"><path fill="#ffffff" d="M 38.996094 197.097656 L 339.394531 197.097656 C 339.394531 114.144531 272.148438 46.898438 189.195312 46.898438 C 106.242188 46.898438 38.996094 114.144531 38.996094 197.097656 Z M 38.996094 197.097656 " fill-opacity="1" fill-rule="nonzero"/></g><g clip-path="url(#d6a3bcb4fe)"><path fill="#00243d" d="M 60.675781 197.585938 L 317.714844 197.585938 C 317.714844 126.605469 260.175781 69.066406 189.195312 69.066406 C 118.214844 69.066406 60.675781 126.605469 60.675781 197.585938 Z M 60.675781 197.585938 " fill-opacity="1" fill-rule="nonzero"/></g><g clip-path="url(#66fe119358)"><g clip-path="url(#c580fac11c)"><path fill="#00243d" d="M 161.042969 195.257812 L 224.144531 195.257812 L 224.144531 258.359375 L 161.042969 258.359375 Z M 161.042969 195.257812 " fill-opacity="1" fill-rule="nonzero"/></g></g><g clip-path="url(#6fdba5eb0d)"><g clip-path="url(#d8101a7b61)"><path fill="#ffffff" d="M 184.753906 218.96875 L 200.429688 218.96875 L 200.429688 234.648438 L 184.753906 234.648438 Z M 184.753906 218.96875 " fill-opacity="1" fill-rule="nonzero"/></g></g><g clip-path="url(#42ac9fc5a9)"><path fill="#ffffff" d="M 92.40625 197.089844 L 285.976562 197.089844 C 285.976562 143.636719 242.644531 100.304688 189.191406 100.304688 C 135.738281 100.304688 92.40625 143.636719 92.40625 197.089844 Z M 92.40625 197.089844 " fill-opacity="1" fill-rule="nonzero"/></g><g clip-path="url(#400e83ee8a)"><g clip-path="url(#2bc9ccfb74)"><path fill="#00243d" d="M 115.816406 123.71875 L 262.582031 123.71875 L 262.582031 270.484375 L 115.816406 270.484375 Z M 115.816406 123.71875 " fill-opacity="1" fill-rule="nonzero"/></g></g><g clip-path="url(#301473d69e)"><g clip-path="url(#d33a5e68f2)"><path fill="#ffffff" d="M 141.996094 149.902344 L 236.398438 149.902344 L 236.398438 244.300781 L 141.996094 244.300781 Z M 141.996094 149.902344 " fill-opacity="1" fill-rule="nonzero"/></g></g><g clip-path="url(#291fdcd42a)"><g clip-path="url(#1cacfedb06)"><path fill="#00243d" d="M 162.949219 170.855469 L 215.445312 170.855469 L 215.445312 223.347656 L 162.949219 223.347656 Z M 162.949219 170.855469 " fill-opacity="1" fill-rule="nonzero"/></g></g><g clip-path="url(#5e72852edb)"><g clip-path="url(#f67407c2b5)"><path fill="#ffffff" d="M 181.359375 189.261719 L 197.035156 189.261719 L 197.035156 204.9375 L 181.359375 204.9375 Z M 181.359375 189.261719 " fill-opacity="1" fill-rule="nonzero"/></g></g><g clip-path="url(#d65d74ea4a)"><path fill="#00243d" d="M -142.949219 134.816406 L 21.277344 134.816406 L 21.277344 311.871094 L -142.949219 311.871094 Z M -142.949219 134.816406 " fill-opacity="1" fill-rule="nonzero"/></g><g clip-path="url(#5d709d5bd0)"><path fill="#00243d" d="M 357.121094 111.40625 L 517.949219 111.40625 L 517.949219 311.816406 L 357.121094 311.816406 Z M 357.121094 111.40625 " fill-opacity="1" fill-rule="nonzero"/></g></svg>